<svg xmlns="http://www.w3.org/2000/svg" viewBox="0 0 100 55" aria-labelledby="logoTitle" role="img">
  <title id="logoTitle">Nimbus IaaS Logo</title>
  <defs>
    <linearGradient id="cloudGradient" x1="0%" y1="0%" x2="100%" y2="0%">
      <stop offset="0%" style="stop-color:#00C6FF; stop-opacity:1" />
      <stop offset="100%" style="stop-color:#007BFF; stop-opacity:1" />
    </linearGradient>
  </defs>
  <path fill="url(#cloudGradient)" d="M 82.8 32.5 C 80.5 22.1 71.1 15 60 15 C 57.9 15 55.9 15.3 54.1 15.8 C 51.6 8.5 44.1 3 35 3 C 24.5 3 15.6 10.3 13.6 20.3 C 6 22 0 28.5 0 36.5 C 0 45.1 7.1 52 16 52 L 82 52 C 91.9 52 100 44 100 34.1 C 100 27.8 96 22.5 90.9 19.8 C 90 23.9 86.8 28.7 82.8 32.5 Z" />
</svg>